<svg width="520" height="124" viewBox="0 0 520 124" fill="none" xmlns="http://www.w3.org/2000/svg">
<path d="M58.7057 123.714H29.3496L0 65.0217L14.7828 35.4692H44.1323L29.3496 65.0217L58.7057 123.714Z" fill="#EEF2FC"/>
<path d="M94.9448 50.343L80.2668 79.6926H50.9106L65.5952 50.343H65.5887L50.9237 21H80.2668L94.9448 50.343Z" fill="#EEF2FC"/>
<path d="M129.9 55C127.233 57.9333 125.9 61.7 125.9 66.3C125.9 70.9 127.267 74.6667 130 77.6C132.733 80.5333 136.3 82 140.7 82C145.167 82 148.733 80.5333 151.4 77.6C154.067 74.6667 155.4 70.9 155.4 66.3C155.4 61.7 154.033 57.9333 151.3 55C148.567 52 145 50.5 140.6 50.5C136.133 50.5 132.567 52 129.9 55ZM126.3 88.7V110.5H112.9V39.5H125.6V44.6C129.6 40.6 135.067 38.6 142 38.6C150.067 38.6 156.533 41.1667 161.4 46.3C166.333 51.3667 168.8 57.9667 168.8 66.1C168.8 74.0333 166.3 80.6667 161.3 86C156.367 91.2667 149.733 93.9 141.4 93.9C135.4 93.9 130.367 92.1667 126.3 88.7ZM190.769 55.1C188.102 58.0333 186.769 61.7667 186.769 66.3C186.769 70.8333 188.135 74.5667 190.869 77.5C193.602 80.3667 197.102 81.8 201.369 81.8C205.702 81.8 209.202 80.3667 211.869 77.5C214.535 74.5667 215.869 70.8333 215.869 66.3C215.869 61.8333 214.502 58.1333 211.769 55.2C209.035 52.2 205.535 50.7 201.269 50.7C196.935 50.7 193.435 52.1667 190.769 55.1ZM181.069 86.2C175.935 81 173.369 74.4 173.369 66.4C173.369 58.4 176.002 51.7667 181.269 46.5C186.602 41.2333 193.269 38.6 201.269 38.6C209.602 38.6 216.335 41.2 221.469 46.4C226.669 51.6 229.269 58.2 229.269 66.2C229.269 74.1333 226.635 80.7333 221.369 86C216.169 91.2667 209.469 93.9 201.269 93.9C193.002 93.9 186.269 91.3333 181.069 86.2ZM252.787 55C250.12 57.9333 248.787 61.7 248.787 66.3C248.787 70.9 250.153 74.6667 252.887 77.6C255.62 80.5333 259.187 82 263.587 82C268.053 82 271.62 80.5333 274.287 77.6C276.953 74.6667 278.287 70.9 278.287 66.3C278.287 61.7 276.92 57.9333 274.187 55C271.453 52 267.887 50.5 263.487 50.5C259.02 50.5 255.453 52 252.787 55ZM249.187 88.7V110.5H235.787V39.5H248.487V44.6C252.487 40.6 257.953 38.6 264.887 38.6C272.953 38.6 279.42 41.1667 284.287 46.3C289.22 51.3667 291.687 57.9667 291.687 66.1C291.687 74.0333 289.187 80.6667 284.187 86C279.253 91.2667 272.62 93.9 264.287 93.9C258.287 93.9 253.253 92.1667 249.187 88.7ZM324.055 81.8C327.989 81.8 331.722 80.3333 335.255 77.4L342.655 86.4C337.922 91.4 331.689 93.9 323.955 93.9C315.622 93.9 308.922 91.3 303.855 86.1C298.789 80.9 296.255 74.3333 296.255 66.4C296.255 58.5333 298.855 51.9333 304.055 46.6C309.322 41.2667 315.922 38.6 323.855 38.6C331.722 38.6 337.989 41 342.655 45.8L334.955 55.1C331.889 52.1667 328.222 50.7 323.955 50.7C319.622 50.7 316.155 52.1667 313.555 55.1C310.955 58.0333 309.655 61.7667 309.655 66.3C309.655 70.9667 311.055 74.7333 313.855 77.6C316.655 80.4 320.055 81.8 324.055 81.8ZM360.206 55.1C357.54 58.0333 356.206 61.7667 356.206 66.3C356.206 70.8333 357.573 74.5667 360.306 77.5C363.04 80.3667 366.54 81.8 370.806 81.8C375.14 81.8 378.64 80.3667 381.306 77.5C383.973 74.5667 385.306 70.8333 385.306 66.3C385.306 61.8333 383.94 58.1333 381.206 55.2C378.473 52.2 374.973 50.7 370.706 50.7C366.373 50.7 362.873 52.1667 360.206 55.1ZM350.506 86.2C345.373 81 342.806 74.4 342.806 66.4C342.806 58.4 345.44 51.7667 350.706 46.5C356.04 41.2333 362.706 38.6 370.706 38.6C379.04 38.6 385.773 41.2 390.906 46.4C396.106 51.6 398.706 58.2 398.706 66.2C398.706 74.1333 396.073 80.7333 390.806 86C385.606 91.2667 378.906 93.9 370.706 93.9C362.44 93.9 355.706 91.3333 350.506 86.2ZM446.624 93V87.7C444.958 89.5 442.724 91 439.924 92.2C437.124 93.3333 434.091 93.9 430.824 93.9C422.558 93.9 415.891 91.3667 410.824 86.3C405.758 81.1667 403.224 74.5333 403.224 66.4C403.224 58.5333 405.758 51.9333 410.824 46.6C415.891 41.2667 422.391 38.6 430.324 38.6C436.791 38.6 441.924 40.3333 445.724 43.8V19.9H459.124V93H446.624ZM420.724 55C417.991 57.9333 416.624 61.6667 416.624 66.2C416.624 70.7333 417.991 74.5 420.724 77.5C423.524 80.4333 427.091 81.9 431.424 81.9C435.824 81.9 439.358 80.4333 442.024 77.5C444.758 74.5 446.124 70.7333 446.124 66.2C446.124 61.6667 444.758 57.9333 442.024 55C439.291 52 435.758 50.5 431.424 50.5C427.024 50.5 423.458 52 420.724 55ZM517.993 70.6H479.793C480.126 74.1333 481.46 76.9333 483.793 79C486.193 81 489.293 82 493.093 82C498.693 82 503.193 79.3333 506.593 74L516.493 80C514.626 83.9333 511.726 87.2333 507.793 89.9C503.926 92.5667 499.026 93.9 493.093 93.9C484.893 93.9 478.26 91.4333 473.193 86.5C468.193 81.5 465.693 74.8 465.693 66.4C465.693 58.3333 468.126 51.7 472.993 46.5C477.926 41.2333 484.26 38.6 491.993 38.6C499.993 38.6 506.36 41 511.093 45.8C515.826 50.6 518.193 57.0333 518.193 65.1C518.193 67.2333 518.126 69.0667 517.993 70.6ZM491.893 49.9C488.56 49.9 485.826 50.9 483.693 52.9C481.626 54.8333 480.426 57.3667 480.093 60.5H504.293C503.96 57.3667 502.693 54.8333 500.493 52.9C498.293 50.9 495.426 49.9 491.893 49.9Z" fill="#EEF2FC"/>
</svg>
